<svg xmlns="http://www.w3.org/2000/svg" viewBox="0 0 64 64" width="64" height="64">
  <defs>
    <!-- Dark gradient background matching your site's dark theme from screenshot -->
    <linearGradient id="bgGrad" x1="0%" y1="0%" x2="100%" y2="100%">
      <stop offset="0%" stop-color="#121212"/>
      <stop offset="100%" stop-color="#000000"/>
    </linearGradient>
  </defs>
  
  <!-- Site-themed circular background -->
  <circle cx="32" cy="32" r="31.5" fill="url(#bgGrad)" stroke="#333" stroke-width="1"/>
  
  <!-- Precise crossed tools icon from your reference image: screwdriver under wrench, cyan blue outline for SmallToolsPro modern look -->
  <g fill="none" stroke="#00BFFF" stroke-width="3.8" stroke-linecap="round" stroke-linejoin="round" stroke-miterlimit="10" opacity="0.95">
    <!-- Screwdriver handle (oval thick, rounded ends) -->
    <path d="M15 38 Q15 30 22 30 Q40 30 47 38 Q47 46 40 46 L22 46 Q15 46 15 38 Z"/>
    <!-- Screwdriver shaft and flat tip -->
    <path d="M25 30 L25 15 L42 15 L42 8 L45 11 L28 28"/>
    <!-- Wrench jaw (curved C-shape open end) -->
    <path d="M8 15 Q18 8 28 15 Q38 22 35 33 Q32 44 22 41 Q12 38 15 27 Z"/>
    <!-- Wrench handle extension -->
    <path d="M28 33 L48 53"/>
  </g>
</svg>
