<svg xmlns="http://www.w3.org/2000/svg" viewBox="0 0 120 120" style="background: #000;">
  <!-- Screwdriver rotated and positioned -->
  <g transform="translate(60,20) rotate(-45)">
    <rect x="-4" y="-10" width="8" height="25" rx="4" fill="#007BFF"/>
    <rect x="-6" y="15" width="12" height="40" rx="2" fill="#007BFF"/>
    <rect x="-8" y="55" width="16" height="10" rx="2" fill="#007BFF"/>
  </g>
  <!-- Wrench rotated and positioned -->
  <g transform="translate(60,100) rotate(45)">
    <path d="M 0 -35 L 25 -30 Q 32 -25 30 -15 L 20 -5 Q 15 0 10 5 L 5 15 Q 0 25 -5 25 L -15 20 Q -25 15 -30 5 L -25 -5 Q -20 -15 -10 -20 Z" fill="#007BFF" transform="scale(0.8)"/>
    <path d="M 20 -25 L 35 -28 L 40 -15 L 28 -10 Z" fill="#007BFF" transform="scale(0.8)"/>
  </g>
</svg>
